<svg xmlns="http://www.w3.org/2000/svg" xmlns:xlink="http://www.w3.org/1999/xlink" width="26" height="41" viewBox="0 0 26 41"><defs><path id="t04sa" d="M963.15 931.42a1.66 1.66 0 1 1-3.32 0 1.66 1.66 0 0 1 3.32 0zm-.7-11.43A11.48 11.48 0 0 1 973 931.42v14.07c0 6.35-5.16 11.51-11.5 11.51S950 951.84 950 945.5v-14.07c0-5.98 4.61-10.95 10.54-11.43zm8.64 25.5v-14.07a9.6 9.6 0 0 0-19.18 0v14.07c0 5.3 4.3 9.6 9.59 9.6a9.6 9.6 0 0 0 9.59-9.6z"/></defs><g><g transform="translate(-948 -918)"><use fill="#fff" xlink:href="#t04sa"/></g></g></svg>